External Loads File
version=1
nRows=93
nColumns=13
Range=5.000000e-03-10 seconds
endheader
time 	forceRightX 	forceRightY 	forceRightZ 	pointRightX 	pointRightY 	pointRightZ 	forceLeftX 	forceLeftY 	forceLeftZ 	pointLeftX 	pointLeftY 	pointLeftZ 		
5.005000 -73.354160 726.938855 -0.000000 0.469941 0.293436 -0.108902 -88.674492 -130.062585 -0.000000 0.178229 0.296336 -0.356196
5.010000 -70.173631 751.138431 -0.000000 0.468309 0.282377 -0.108177 -67.643528 -109.775842 -0.000000 0.179789 0.306863 -0.356255
5.015000 -62.618166 777.894984 -0.000000 0.466006 0.271504 -0.109005 -47.785832 -92.534696 -0.000000 0.181925 0.317368 -0.356383
5.020000 -50.517633 806.615286 -0.000000 0.463090 0.260852 -0.109067 -29.987345 -78.381872 -0.000000 0.184762 0.327859 -0.356541
5.025000 -33.950265 836.521658 -0.000000 0.459537 0.250450 -0.109106 -14.800647 -67.278861 -0.000000 0.188129 0.338350 -0.356790
5.030000 -14.246820 866.743762 -0.000000 0.455495 0.240540 -0.109356 -2.490831 -59.092811 -0.000000 0.192056 0.348715 -0.356815
5.035000 9.159995 896.534780 -0.000000 0.450828 0.230790 -0.109634 6.669499 -53.539903 -0.000000 0.196594 0.358837 -0.356936
5.040000 35.865887 925.182480 -0.000000 0.445690 0.221325 -0.109704 12.621344 -50.248834 -0.000000 0.201705 0.368897 -0.356964
5.045000 64.967400 952.092188 -0.000000 0.439926 0.212176 -0.109749 15.423569 -48.738457 -0.000000 0.207376 0.378649 -0.356848
5.050000 95.946125 976.762571 -0.000000 0.433638 0.203394 -0.109645 15.222671 -48.463215 -0.000000 0.213573 0.388169 -0.356654
5.055000 128.347850 998.769531 -0.000000 0.426853 0.194864 -0.109547 12.322821 -48.845174 -0.000000 0.220265 0.397363 -0.356402
5.060000 160.213940 1017.961441 -0.000000 0.419664 0.186971 -0.109565 7.243572 -49.266902 -0.000000 0.227402 0.406081 -0.356126
5.065000 191.638251 1033.967668 -0.000000 0.412042 0.179579 -0.109582 0.475309 -49.108549 -0.000000 0.234892 0.414357 -0.355805
5.070000 224.549219 1045.949582 -0.000000 0.404065 0.172485 -0.109589 -7.554221 -47.689897 -0.000000 0.243309 0.422241 -0.356895
5.075000 253.215415 1054.637403 -0.000000 0.395764 0.166134 -0.109553 -16.055401 -44.367472 -0.000000 0.251259 0.429568 -0.355239
5.080000 281.400375 1058.739504 -0.000000 0.387102 0.160293 -0.109484 -24.646867 -38.510101 -0.000000 0.259794 0.436208 -0.354761
5.085000 308.181082 1057.812247 -0.000000 0.378272 0.154920 -0.109265 -32.674914 -29.672247 -0.000000 0.268671 0.442424 -0.354870
5.090000 333.073412 1051.211553 -0.000000 0.369183 0.150002 -0.108932 -39.489300 -17.666527 -0.000000 0.277813 0.447932 -0.354548
5.095000 355.712440 1038.141794 -0.000000 0.359937 0.145787 -0.108676 -44.504957 -2.537305 -0.000000 0.287271 0.452813 -0.354115
5.100000 375.236891 1017.907161 -0.000000 0.350643 0.142088 -0.108428 -47.258450 15.476818 -0.000000 0.296897 0.457015 -0.353846
5.105000 390.794875 989.838821 -0.000000 0.341236 0.139083 -0.108218 -47.441468 35.930566 -0.000000 0.306464 0.460683 -0.353776
5.110000 402.660535 952.939292 -0.000000 0.331576 0.136742 -0.107926 -44.838708 58.162553 -0.000000 0.316075 0.463644 -0.353849
5.115000 408.142891 907.747931 -0.000000 0.322197 0.134760 -0.107592 -39.574342 81.156419 -0.000000 0.325474 0.465793 -0.354053
5.120000 407.846089 853.914486 -0.000000 0.312924 0.133570 -0.107325 -31.842342 104.045951 -0.000000 0.334798 0.467711 -0.354448
5.125000 400.810529 792.303124 -0.000000 0.303869 0.133121 -0.107010 -22.180715 126.170397 -0.000000 0.343784 0.469071 -0.354926
5.130000 387.560650 723.675454 -0.000000 0.294951 0.133287 -0.106880 -11.134941 147.437208 -0.000000 0.352445 0.470025 -0.355375
5.135000 369.165572 649.025197 -0.000000 0.286090 0.134235 -0.106453 0.812089 168.278961 -0.000000 0.360768 0.470175 -0.355988
5.140000 346.804270 569.637652 -0.000000 0.277035 0.135966 -0.106764 13.253511 189.419796 -0.000000 0.368741 0.469792 -0.356807
5.145000 320.737496 487.531674 -0.000000 0.268603 0.138143 -0.106689 25.486941 211.684229 -0.000000 0.376460 0.467957 -0.358055
5.150000 292.360551 403.989392 -0.000000 0.260103 0.141249 -0.106720 37.126636 235.812195 -0.000000 0.383593 0.465854 -0.358793
5.155000 262.614509 320.239612 -0.000000 0.251733 0.144707 -0.106549 47.683410 262.284802 -0.000000 0.390347 0.462892 -0.359521
5.160000 231.664477 237.750477 -0.000000 0.243706 0.148824 -0.106455 55.991832 291.265341 -0.000000 0.396379 0.459788 -0.359961
5.165000 200.670136 156.704538 -0.000000 0.235971 0.153515 -0.106381 61.905437 322.220622 -0.000000 0.402305 0.456027 -0.360747
5.170000 169.599796 77.811749 -0.000000 0.228534 0.158637 -0.106191 64.799841 354.291723 -0.000000 0.408135 0.451337 -0.361633
5.175000 138.094260 2.028301 -0.000000 0.221392 0.164338 -0.106016 63.729205 386.440696 -0.000000 0.413510 0.445943 -0.361982
5.180000 105.777116 -69.791429 -0.000000 0.214835 0.170582 -0.105901 58.659264 417.396343 -0.000000 0.418972 0.439708 -0.362389
5.185000 72.294655 -136.207709 -0.000000 0.208949 0.177275 -0.105575 49.086066 446.063967 -0.000000 0.424352 0.432916 -0.362557
5.190000 37.654109 -195.685214 -0.000000 0.203727 0.184087 -0.105163 35.102894 471.494487 -0.000000 0.429758 0.425543 -0.362588
5.195000 2.079915 -246.646657 -0.000000 0.198877 0.191119 -0.104923 17.572811 493.065485 -0.000000 0.435103 0.417514 -0.362521
5.200000 -33.399445 -287.659589 -0.000000 0.194626 0.198426 -0.104888 -3.080611 510.707952 -0.000000 0.440234 0.408886 -0.362557
5.205000 -67.627405 -317.769631 -0.000000 0.190767 0.206230 -0.104832 -25.462318 524.874129 -0.000000 0.445132 0.399793 -0.362623
5.210000 -98.671904 -336.712885 -0.000000 0.187309 0.214395 -0.104767 -48.909942 536.459499 -0.000000 0.449529 0.390339 -0.362738
5.215000 -125.474109 -344.624529 -0.000000 0.184108 0.223160 -0.104846 -71.385808 546.762569 -0.000000 0.453595 0.380390 -0.362718
5.220000 -146.456934 -342.394899 -0.000000 0.180592 0.232333 -0.105689 -92.250382 557.105296 -0.000000 0.457148 0.370289 -0.362640
5.225000 -159.884164 -331.774064 -0.000000 0.178067 0.241773 -0.105917 -112.064579 568.440297 -0.000000 0.460142 0.360164 -0.362532
5.230000 -166.450107 -314.052115 -0.000000 0.175949 0.251668 -0.106111 -128.546653 581.996553 -0.000000 0.462668 0.349676 -0.362355
5.235000 -165.941886 -291.370824 -0.000000 0.174338 0.261713 -0.106404 -142.117895 598.259742 -0.000000 0.464598 0.339069 -0.362115
5.240000 -159.373667 -265.571591 -0.000000 0.173253 0.271928 -0.106697 -152.143105 617.664750 -0.000000 0.465892 0.328267 -0.361851
5.245000 -148.140091 -238.369887 -0.000000 0.172773 0.282439 -0.106972 -157.978034 640.406553 -0.000000 0.466597 0.317266 -0.361730
5.250000 -133.376748 -211.505459 -0.000000 0.173057 0.292819 -0.107198 -160.328714 666.080807 -0.000000 0.466706 0.306079 -0.361633
5.255000 -116.909655 -185.944761 -0.000000 0.173840 0.303531 -0.107448 -158.108808 694.485199 -0.000000 0.466322 0.294760 -0.361825
5.260000 -99.570349 -162.838067 -0.000000 0.175150 0.314075 -0.107793 -153.072085 724.551646 -0.000000 0.465468 0.283589 -0.361632
5.265000 -82.729789 -142.554593 -0.000000 0.177143 0.324777 -0.108111 -144.422636 755.635034 -0.000000 0.463935 0.272623 -0.361366
5.270000 -67.275055 -125.380266 -0.000000 0.179929 0.335360 -0.108225 -132.284561 786.769082 -0.000000 0.461791 0.261736 -0.360967
5.275000 -53.820740 -111.430561 -0.000000 0.183252 0.345859 -0.108516 -117.430738 816.907613 -0.000000 0.459038 0.251231 -0.360498
5.280000 -42.886671 -100.602160 -0.000000 0.187031 0.356190 -0.108640 -100.328287 845.184788 -0.000000 0.455688 0.241120 -0.360021
5.285000 -35.039634 -92.590486 -0.000000 0.191659 0.366349 -0.108984 -79.621245 871.039142 -0.000000 0.451625 0.231061 -0.359694
5.290000 -30.392111 -87.119954 -0.000000 0.196787 0.376383 -0.109203 -56.416457 893.656482 -0.000000 0.447029 0.221268 -0.359339
5.295000 -28.949593 -83.780699 -0.000000 0.202499 0.385981 -0.109521 -31.454577 912.329737 -0.000000 0.441876 0.211728 -0.358615
5.300000 -30.546426 -82.111477 -0.000000 0.208695 0.395199 -0.109885 -5.297396 926.396356 -0.000000 0.436317 0.202494 -0.358368
5.305000 -34.895920 -81.627770 -0.000000 0.215466 0.404113 -0.110323 22.020087 935.292528 -0.000000 0.430266 0.193711 -0.358073
5.310000 -41.549303 -81.848170 -0.000000 0.222811 0.412595 -0.110459 49.982490 938.594509 -0.000000 0.423756 0.185332 -0.357878
5.315000 -49.939250 -82.299179 -0.000000 0.230357 0.420669 -0.110932 77.531275 936.064887 -0.000000 0.416815 0.177303 -0.357770
5.320000 -59.533274 -82.439936 -0.000000 0.238452 0.428428 -0.111305 104.666409 927.504402 -0.000000 0.409577 0.169779 -0.357671
5.325000 -69.650684 -81.788336 -0.000000 0.246897 0.435538 -0.111706 130.212396 912.907358 -0.000000 0.401971 0.162780 -0.357605
5.330000 -79.728901 -79.808844 -0.000000 0.255770 0.442064 -0.112030 154.164846 892.233757 -0.000000 0.394122 0.156133 -0.357657
5.335000 -89.222217 -76.022705 -0.000000 0.265076 0.448057 -0.111962 176.025546 865.575043 -0.000000 0.386051 0.149940 -0.357601
5.340000 -97.493847 -70.170761 -0.000000 0.274211 0.453477 -0.112420 193.668966 833.533716 -0.000000 0.377776 0.144462 -0.357688
5.345000 -104.183949 -61.794038 -0.000000 0.284117 0.458200 -0.111973 207.603286 796.411703 -0.000000 0.369979 0.139407 -0.359755
5.350000 -108.937921 -50.569692 -0.000000 0.293386 0.462271 -0.112747 217.820137 754.847531 -0.000000 0.361296 0.134967 -0.359861
5.355000 -111.470925 -36.286230 -0.000000 0.303220 0.465659 -0.112977 224.654647 709.768967 -0.000000 0.352662 0.131305 -0.360048
5.360000 -111.490427 -19.062088 -0.000000 0.313030 0.468491 -0.113106 227.754983 662.774298 -0.000000 0.343770 0.128341 -0.360016
5.365000 -108.784890 -1.018018 -0.000000 0.322962 0.470695 -0.113171 216.983927 619.399088 -0.000000 0.340458 0.125937 -0.366161
5.370000 -103.585039 21.188652 -0.000000 0.333007 0.472267 -0.113010 214.780512 573.858162 -0.000000 0.331331 0.124488 -0.366315
5.375000 -94.795994 46.548339 -0.000000 0.342559 0.473361 -0.113005 218.805089 528.339791 -0.000000 0.316331 0.124036 -0.359942
5.380000 -83.131881 71.842243 -0.000000 0.351914 0.473931 -0.112850 215.971943 489.633656 -0.000000 0.304006 0.124181 -0.361772
5.385000 -70.062438 96.529620 -0.000000 0.360789 0.474135 -0.112690 206.022713 459.494741 -0.000000 0.296226 0.125127 -0.359940
5.390000 -53.872314 122.569625 -0.000000 0.369498 0.473585 -0.112664 202.200792 432.340935 -0.000000 0.283991 0.126597 -0.361548
5.395000 -37.794090 148.835046 -0.000000 0.377683 0.472594 -0.112389 193.635104 412.359215 -0.000000 0.276220 0.128812 -0.359482
5.400000 -20.179217 177.117764 -0.000000 0.385259 0.470891 -0.112072 187.969734 394.217077 -0.000000 0.266543 0.131408 -0.359322
5.405000 -2.103150 208.071689 -0.000000 0.392195 0.468650 -0.111584 182.626499 376.527223 -0.000000 0.257209 0.134853 -0.359074
5.410000 15.986580 242.469017 -0.000000 0.398442 0.465752 -0.111043 177.257141 356.461306 -0.000000 0.248229 0.138837 -0.358834
5.415000 33.841577 280.619752 -0.000000 0.404434 0.462152 -0.110172 171.907077 331.085395 -0.000000 0.239644 0.143416 -0.358750
5.420000 50.615661 322.285363 -0.000000 0.409966 0.457838 -0.109523 165.913268 298.333127 -0.000000 0.231509 0.148564 -0.358756
5.425000 65.770533 366.576420 -0.000000 0.415278 0.452699 -0.109219 159.012785 256.699783 -0.000000 0.223759 0.154292 -0.358828
5.430000 78.653904 412.042252 -0.000000 0.420638 0.446895 -0.109213 150.524178 205.851234 -0.000000 0.216482 0.160710 -0.358932
5.435000 88.806849 456.776859 -0.000000 0.425809 0.439789 -0.109261 139.563857 146.687561 -0.000000 0.209639 0.167665 -0.359124
5.440000 94.717632 498.933901 -0.000000 0.430825 0.432295 -0.109056 124.894664 81.676222 -0.000000 0.203490 0.175001 -0.359169
5.445000 96.524774 536.566148 -0.000000 0.435864 0.424085 -0.108753 106.053337 13.776906 -0.000000 0.198047 0.182693 -0.359197
5.450000 94.119665 568.335916 -0.000000 0.440714 0.415439 -0.109007 82.671196 -53.215549 -0.000000 0.193265 0.190963 -0.359196
5.455000 87.416615 593.630375 -0.000000 0.445343 0.406230 -0.109181 54.962522 -115.267373 -0.000000 0.188910 0.199122 -0.357291
5.460000 76.111603 612.565030 -0.000000 0.449713 0.396552 -0.109278 24.076426 -168.771997 -0.000000 0.185689 0.207314 -0.357243
5.465000 60.615397 625.728759 -0.000000 0.453566 0.386826 -0.109124 -8.062006 -211.274147 -0.000000 0.183080 0.215477 -0.357124
